<?xml version="1.0" encoding="utf-8"?><svg viewBox="0 0 148 146" xmlns="http://www.w3.org/2000/svg" xmlns:xlink="http://www.w3.org/1999/xlink"><style>:root>svg{display:none}:root>svg:target{display:block}</style><svg fill="none" viewBox="0 0 66 66" id="Icon_oval" xmlns="http://www.w3.org/2000/svg"><g filter="url(#ca)"><rect x="9" y="6" width="48" height="48" rx="24" fill="#fff"/></g><defs><filter id="ca" x="0" y="0" width="66" height="66" filterUnits="userSpaceOnUse" color-interpolation-filters="sRGB"><feFlood flood-opacity="0" result="BackgroundImageFix"/><feColorMatrix in="SourceAlpha" values="0 0 0 0 0 0 0 0 0 0 0 0 0 0 0 0 0 0 127 0" result="hardAlpha"/><feOffset dy="3"/><feGaussianBlur stdDeviation="4.5"/><feColorMatrix values="0 0 0 0 0.223529 0 0 0 0 0.0784314 0 0 0 0 0 0 0 0 0.08 0"/><feBlend in2="BackgroundImageFix" result="effect1_dropShadow_1_981"/><feBlend in="SourceGraphic" in2="effect1_dropShadow_1_981" result="shape"/></filter></defs></svg><svg fill="none" viewBox="0 0 80 80" id="Oval" xmlns="http://www.w3.org/2000/svg"><circle cx="40" cy="40" r="40" fill="#EF6C57"/></svg><svg fill="none" viewBox="0 0 48 48" id="Oval_(2)" xmlns="http://www.w3.org/2000/svg"><circle cx="24" cy="24" r="24" fill="#EF6D58"/></svg><svg fill="none" viewBox="0 0 32 32" id="check" xmlns="http://www.w3.org/2000/svg"><circle cx="16" cy="16" r="16" fill="#EF6C57"/><path fill-rule="evenodd" clip-rule="evenodd" d="M8 14.92c1.84.426 4.208 1.25 6 2.545 2.105-3.13 5.885-6.059 10-8.465-3.907 4.274-7.14 9.124-9.333 14-1.768-2.787-3.698-5.381-6.667-8.08Z" fill="#fff"/></svg><svg fill="none" viewBox="0 0 24 22" id="icon.star_1" xmlns="http://www.w3.org/2000/svg"><path d="M12.407 17.226 12 17.01l-.407.215-5.484 2.883 1.047-6.107.078-.453-.33-.322-4.436-4.324 6.131-.891.455-.066.204-.413L12 1.977l2.742 5.556.204.413.455.066 6.131.89-4.436 4.325-.33.322.078.453 1.047 6.107-5.484-2.884Z" stroke="#F6D021" stroke-width="1.75"/></svg><svg fill="none" viewBox="0 0 24 22" id="icon.star_2" xmlns="http://www.w3.org/2000/svg"><path d="m12 18-7.053 3.708 1.347-7.854L.587 8.292l7.886-1.146L12 0l3.527 7.146 7.886 1.146-5.707 5.562 1.347 7.854L12 18Z" fill="#F6D021"/></svg><svg fill="none" viewBox="0 0 32 32" id="icon.up" xmlns="http://www.w3.org/2000/svg"><circle cx="16" cy="16" r="16" fill="#EF6D58"/><path fill-rule="evenodd" clip-rule="evenodd" d="m15.222 11.32-4.964 5.128c-.586.605-.11 1.552.78 1.552h9.926c.407 0 .776-.214.944-.549a.866.866 0 0 0-.165-1.003L16.78 11.32A1.085 1.085 0 0 0 16 11c-.298 0-.582.117-.778.32Z" fill="#fff"/></svg><svg fill="none" viewBox="0 0 112 112" id="icon_Projects_Done" xmlns="http://www.w3.org/2000/svg"><circle cx="56" cy="56" r="56" fill="#EF6C57"/><path fill-rule="evenodd" clip-rule="evenodd" d="M51.5 35a4.5 4.5 0 0 0-4.5 4.5V41H36.5a4.5 4.5 0 0 0-4.5 4.5v4.152l22.842 6.09a4.5 4.5 0 0 0 2.316 0L80 49.652V45.5a4.5 4.5 0 0 0-4.5-4.5H65v-1.5a4.5 4.5 0 0 0-4.5-4.5h-9Zm0 3h9a1.5 1.5 0 0 1 1.5 1.5V41H50v-1.5a1.5 1.5 0 0 1 1.5-1.5Zm-15 36a4.5 4.5 0 0 1-4.5-4.5V52.55l23.613 6.291a1.5 1.5 0 0 0 .774 0L80 52.55V69.5a4.5 4.5 0 0 1-4.5 4.5h-39Z" fill="#fff"/></svg><svg fill="none" viewBox="0 0 112 112" id="icon_Years_of_experience" xmlns="http://www.w3.org/2000/svg"><circle cx="56" cy="56" r="56" fill="#EF6C57"/><path fill-rule="evenodd" clip-rule="evenodd" d="M42.5 31a1.5 1.5 0 0 1 1.5 1.5V34h24v-1.5a1.5 1.5 0 0 1 3 0V34h3a6 6 0 0 1 6 6v33a6 6 0 0 1-6 6H38a6 6 0 0 1-6-6V40a6 6 0 0 1 6-6h3v-1.5a1.5 1.5 0 0 1 1.5-1.5Zm29.862 9H39.635c-.9 0-1.635.672-1.635 1.5v3c0 .828.732 1.5 1.635 1.5h32.73c.9 0 1.635-.672 1.635-1.5v-3c0-.828-.732-1.5-1.638-1.5Zm-7.8 15.438a1.502 1.502 0 0 1 0 2.124l-9 9a1.5 1.5 0 0 1-2.124 0l-4.5-4.5a1.502 1.502 0 1 1 2.124-2.124l3.438 3.441 7.938-7.941a1.502 1.502 0 0 1 2.124 0Z" fill="#fff"/></svg><svg fill="none" viewBox="0 0 148 146" id="icon_get_started" xmlns="http://www.w3.org/2000/svg"><path d="m74 110.73-17.71 34.765.515-38.993-31.876 22.573 18.62-34.288-38.74 5.21 32.46-21.728L.54 64.922l38.865-4.19L13.1 31.884l36.366 14.307L39.61 8.456l25.535 29.527L74 0l8.855 37.983L108.39 8.456l-9.855 37.736 36.366-14.307-26.305 28.846 38.864 4.19-36.73 13.348 32.461 21.728-38.741-5.21 18.621 34.288-31.876-22.573.514 38.993L74 110.73Z" fill="#EF6D58"/><path fill-rule="evenodd" clip-rule="evenodd" d="M64 62.847a4.994 4.994 0 0 1 5-4.988c2.761 0 5 2.233 5 4.988a4.994 4.994 0 0 1 5-4.988c2.761 0 5 2.233 5 4.988v.012c0 .14 0 .538-.076.985H88c1.105 0 2 .893 2 1.995v1.996a1.998 1.998 0 0 1-2 1.995H60c-1.105 0-2-.894-2-1.995v-1.996c0-1.102.895-1.995 2-1.995h4.076A5.915 5.915 0 0 1 64 62.86v-.012Zm2.136.997H72v-.997c0-1.07-.572-2.057-1.5-2.592a3.006 3.006 0 0 0-3 0 2.991 2.991 0 0 0-1.5 2.592c0 .17.004.546.09.858.012.047.027.094.046.14Zm15.728 0H76v-.997a2.996 2.996 0 0 1 3-2.993c1.657 0 3 1.34 3 2.993 0 .17-.004.546-.09.858a1.108 1.108 0 0 1-.046.14ZM88 71.824v14.964a2.996 2.996 0 0 1-3 2.993h-9V71.825h12ZM60 86.789a2.996 2.996 0 0 0 3 2.993h9V71.825H60v14.963Z" fill="#fff"/></svg><svg fill="none" viewBox="0 0 76 12" id="oval.pins3" xmlns="http://www.w3.org/2000/svg"><circle cx="6" cy="6" r="6" fill="#EF6D58"/><circle cx="38" cy="6" r="5.5" stroke="#4E4F6E"/><circle cx="70" cy="6" r="5.5" stroke="#4E4F6E"/></svg></svg>